<svg width="302" height="181" viewBox="0 0 302 181" fill="none" xmlns="http://www.w3.org/2000/svg">
<mask id="path-1-outside-1_1128_160" maskUnits="userSpaceOnUse" x="10.0996" y="-1.90002" width="282" height="100" fill="black">
<rect fill="white" x="10.0996" y="-1.90002" width="282" height="100"/>
<path d="M85.3996 66.4C85.3996 70.1 85.7996 73.1 86.4996 75.3C87.2996 77.5 88.2996 79.9 89.6996 82.5C90.1996 83.3 90.3996 84.1 90.3996 84.8C90.3996 85.8 89.7996 86.8 88.4996 87.8L82.1996 92C81.2996 92.6 80.3996 92.9 79.5996 92.9C78.5996 92.9 77.5996 92.4 76.5996 91.5C75.1996 90 73.9996 88.4 72.9996 86.8C71.9996 85.1 70.9996 83.2 69.8996 80.9C62.0996 90.1 52.2996 94.7 40.4996 94.7C32.0996 94.7 25.3996 92.3 20.4996 87.5C15.5996 82.7 13.0996 76.3 13.0996 68.3C13.0996 59.8 16.0996 52.9 22.1996 47.7C28.2996 42.5 36.3996 39.9 46.6996 39.9C50.0996 39.9 53.5996 40.2 57.2996 40.7C60.9996 41.2 64.7996 42 68.7996 42.9V35.6C68.7996 28 67.1996 22.7 64.0996 19.6C60.8996 16.5 55.4996 15 47.7996 15C44.2996 15 40.6996 15.4 36.9996 16.3C33.2996 17.2 29.6996 18.3 26.1996 19.7C24.5996 20.4 23.3996 20.8 22.6996 21C21.9996 21.2 21.4996 21.3 21.0996 21.3C19.6996 21.3 18.9996 20.3 18.9996 18.2V13.3C18.9996 11.7 19.1996 10.5 19.6996 9.79998C20.1996 9.09998 21.0996 8.39998 22.4996 7.69998C25.9996 5.89998 30.1996 4.39998 35.0996 3.19998C39.9996 1.89998 45.1996 1.29998 50.6996 1.29998C62.5996 1.29998 71.2996 3.99997 76.8996 9.39997C82.3996 14.8 85.1996 23 85.1996 34V66.4H85.3996ZM44.7996 81.6C48.0996 81.6 51.4996 81 55.0996 79.8C58.6996 78.6 61.8996 76.4 64.5996 73.4C66.1996 71.5 67.3996 69.4 67.9996 67C68.5996 64.6 68.9996 61.7 68.9996 58.3V54.1C66.0996 53.4 62.9996 52.8 59.7996 52.4C56.5996 52 53.4996 51.8 50.3996 51.8C43.6996 51.8 38.7996 53.1 35.4996 55.8C32.1996 58.5 30.5996 62.3 30.5996 67.3C30.5996 72 31.7996 75.5 34.2996 77.9C36.6996 80.4 40.1996 81.6 44.7996 81.6ZM125.1 92.4C123.3 92.4 122.1 92.1 121.3 91.4C120.5 90.8 119.8 89.4 119.2 87.5L95.6996 10.2C95.0996 8.19998 94.7996 6.89998 94.7996 6.19998C94.7996 4.59998 95.5996 3.69998 97.1996 3.69998H107C108.9 3.69998 110.2 3.99998 110.9 4.69998C111.7 5.29998 112.3 6.69998 112.9 8.59998L129.7 74.8L145.3 8.59998C145.8 6.59998 146.4 5.29998 147.2 4.69998C148 4.09998 149.4 3.69998 151.2 3.69998H159.2C161.1 3.69998 162.4 3.99998 163.2 4.69998C164 5.29998 164.7 6.69998 165.1 8.59998L180.9 75.6L198.2 8.59998C198.8 6.59998 199.5 5.29998 200.2 4.69998C201 4.09998 202.3 3.69998 204.1 3.69998H213.4C215 3.69998 215.9 4.49998 215.9 6.19998C215.9 6.69998 215.8 7.19998 215.7 7.79998C215.6 8.39998 215.4 9.19998 215 10.3L190.9 87.6C190.3 89.6 189.6 90.9 188.8 91.5C188 92.1 186.7 92.5 185 92.5H176.4C174.5 92.5 173.2 92.2 172.4 91.5C171.6 90.8 170.9 89.5 170.5 87.5L155 23L139.6 87.4C139.1 89.4 138.5 90.7 137.7 91.4C136.9 92.1 135.5 92.4 133.7 92.4H125.1ZM253.6 95.1C248.4 95.1 243.2 94.5 238.2 93.3C233.2 92.1 229.3 90.8 226.7 89.3C225.1 88.4 224 87.4 223.6 86.5C223.2 85.6 223 84.6 223 83.7V78.6C223 76.5 223.8 75.5 225.3 75.5C225.9 75.5 226.5 75.6 227.1 75.8C227.7 76 228.6 76.4 229.6 76.8C233 78.3 236.7 79.5 240.6 80.3C244.6 81.1 248.5 81.5 252.5 81.5C258.8 81.5 263.7 80.4 267.1 78.2C270.5 76 272.3 72.8 272.3 68.7C272.3 65.9 271.4 63.6 269.6 61.7C267.8 59.8 264.4 58.1 259.5 56.5L245 52C237.7 49.7 232.3 46.3 229 41.8C225.7 37.4 224 32.5 224 27.3C224 23.1 224.9 19.4 226.7 16.2C228.5 13 230.9 10.2 233.9 7.99998C236.9 5.69998 240.3 3.99998 244.3 2.79998C248.3 1.59998 252.5 1.09998 256.9 1.09998C259.1 1.09998 261.4 1.19998 263.6 1.49998C265.9 1.79998 268 2.19998 270.1 2.59998C272.1 3.09998 274 3.59998 275.8 4.19998C277.6 4.79998 279 5.39998 280 5.99998C281.4 6.79998 282.4 7.59998 283 8.49998C283.6 9.29998 283.9 10.4 283.9 11.8V16.5C283.9 18.6 283.1 19.7 281.6 19.7C280.8 19.7 279.5 19.3 277.8 18.5C272.1 15.9 265.7 14.6 258.6 14.6C252.9 14.6 248.4 15.5 245.3 17.4C242.2 19.3 240.6 22.2 240.6 26.3C240.6 29.1 241.6 31.5 243.6 33.4C245.6 35.3 249.3 37.2 254.6 38.9L268.8 43.4C276 45.7 281.2 48.9 284.3 53C287.4 57.1 288.9 61.8 288.9 67C288.9 71.3 288 75.2 286.3 78.6C284.5 82 282.1 85 279 87.4C275.9 89.9 272.2 91.7 267.9 93C263.4 94.4 258.7 95.1 253.6 95.1Z"/>
</mask>
<path d="M85.3996 66.4C85.3996 70.1 85.7996 73.1 86.4996 75.3C87.2996 77.5 88.2996 79.9 89.6996 82.5C90.1996 83.3 90.3996 84.1 90.3996 84.8C90.3996 85.8 89.7996 86.8 88.4996 87.8L82.1996 92C81.2996 92.6 80.3996 92.9 79.5996 92.9C78.5996 92.9 77.5996 92.4 76.5996 91.5C75.1996 90 73.9996 88.4 72.9996 86.8C71.9996 85.1 70.9996 83.2 69.8996 80.9C62.0996 90.1 52.2996 94.7 40.4996 94.7C32.0996 94.7 25.3996 92.3 20.4996 87.5C15.5996 82.7 13.0996 76.3 13.0996 68.3C13.0996 59.8 16.0996 52.9 22.1996 47.7C28.2996 42.5 36.3996 39.9 46.6996 39.9C50.0996 39.9 53.5996 40.2 57.2996 40.7C60.9996 41.2 64.7996 42 68.7996 42.9V35.6C68.7996 28 67.1996 22.7 64.0996 19.6C60.8996 16.5 55.4996 15 47.7996 15C44.2996 15 40.6996 15.4 36.9996 16.3C33.2996 17.2 29.6996 18.3 26.1996 19.7C24.5996 20.4 23.3996 20.8 22.6996 21C21.9996 21.2 21.4996 21.3 21.0996 21.3C19.6996 21.3 18.9996 20.3 18.9996 18.2V13.3C18.9996 11.7 19.1996 10.5 19.6996 9.79998C20.1996 9.09998 21.0996 8.39998 22.4996 7.69998C25.9996 5.89998 30.1996 4.39998 35.0996 3.19998C39.9996 1.89998 45.1996 1.29998 50.6996 1.29998C62.5996 1.29998 71.2996 3.99997 76.8996 9.39997C82.3996 14.8 85.1996 23 85.1996 34V66.4H85.3996ZM44.7996 81.6C48.0996 81.6 51.4996 81 55.0996 79.8C58.6996 78.6 61.8996 76.4 64.5996 73.4C66.1996 71.5 67.3996 69.4 67.9996 67C68.5996 64.6 68.9996 61.7 68.9996 58.3V54.1C66.0996 53.4 62.9996 52.8 59.7996 52.4C56.5996 52 53.4996 51.8 50.3996 51.8C43.6996 51.8 38.7996 53.1 35.4996 55.8C32.1996 58.5 30.5996 62.3 30.5996 67.3C30.5996 72 31.7996 75.5 34.2996 77.9C36.6996 80.4 40.1996 81.6 44.7996 81.6ZM125.1 92.4C123.3 92.4 122.1 92.1 121.3 91.4C120.5 90.8 119.8 89.4 119.2 87.5L95.6996 10.2C95.0996 8.19998 94.7996 6.89998 94.7996 6.19998C94.7996 4.59998 95.5996 3.69998 97.1996 3.69998H107C108.9 3.69998 110.2 3.99998 110.9 4.69998C111.7 5.29998 112.3 6.69998 112.9 8.59998L129.7 74.8L145.3 8.59998C145.8 6.59998 146.4 5.29998 147.2 4.69998C148 4.09998 149.4 3.69998 151.2 3.69998H159.2C161.1 3.69998 162.4 3.99998 163.2 4.69998C164 5.29998 164.7 6.69998 165.1 8.59998L180.9 75.6L198.2 8.59998C198.8 6.59998 199.5 5.29998 200.2 4.69998C201 4.09998 202.3 3.69998 204.1 3.69998H213.4C215 3.69998 215.9 4.49998 215.9 6.19998C215.9 6.69998 215.8 7.19998 215.7 7.79998C215.6 8.39998 215.4 9.19998 215 10.3L190.9 87.6C190.3 89.6 189.6 90.9 188.8 91.5C188 92.1 186.7 92.5 185 92.5H176.4C174.5 92.5 173.2 92.2 172.4 91.5C171.6 90.8 170.9 89.5 170.5 87.5L155 23L139.6 87.4C139.1 89.4 138.5 90.7 137.7 91.4C136.9 92.1 135.5 92.4 133.7 92.4H125.1ZM253.6 95.1C248.4 95.1 243.2 94.5 238.2 93.3C233.2 92.1 229.3 90.8 226.7 89.3C225.1 88.4 224 87.4 223.6 86.5C223.2 85.6 223 84.6 223 83.7V78.6C223 76.5 223.8 75.5 225.3 75.5C225.9 75.5 226.5 75.6 227.1 75.8C227.7 76 228.6 76.4 229.6 76.8C233 78.3 236.7 79.5 240.6 80.3C244.6 81.1 248.5 81.5 252.5 81.5C258.8 81.5 263.7 80.4 267.1 78.2C270.5 76 272.3 72.8 272.3 68.7C272.3 65.9 271.4 63.6 269.6 61.7C267.8 59.8 264.4 58.1 259.5 56.5L245 52C237.7 49.7 232.3 46.3 229 41.8C225.7 37.4 224 32.5 224 27.3C224 23.1 224.9 19.4 226.7 16.2C228.5 13 230.9 10.2 233.9 7.99998C236.9 5.69998 240.3 3.99998 244.3 2.79998C248.3 1.59998 252.5 1.09998 256.9 1.09998C259.1 1.09998 261.4 1.19998 263.6 1.49998C265.9 1.79998 268 2.19998 270.1 2.59998C272.1 3.09998 274 3.59998 275.8 4.19998C277.6 4.79998 279 5.39998 280 5.99998C281.4 6.79998 282.4 7.59998 283 8.49998C283.6 9.29998 283.9 10.4 283.9 11.8V16.5C283.9 18.6 283.1 19.7 281.6 19.7C280.8 19.7 279.5 19.3 277.8 18.5C272.1 15.9 265.7 14.6 258.6 14.6C252.9 14.6 248.4 15.5 245.3 17.4C242.2 19.3 240.6 22.2 240.6 26.3C240.6 29.1 241.6 31.5 243.6 33.4C245.6 35.3 249.3 37.2 254.6 38.9L268.8 43.4C276 45.7 281.2 48.9 284.3 53C287.4 57.1 288.9 61.8 288.9 67C288.9 71.3 288 75.2 286.3 78.6C284.5 82 282.1 85 279 87.4C275.9 89.9 272.2 91.7 267.9 93C263.4 94.4 258.7 95.1 253.6 95.1Z" fill="#252F3E"/>
<path d="M85.3996 66.4C85.3996 70.1 85.7996 73.1 86.4996 75.3C87.2996 77.5 88.2996 79.9 89.6996 82.5C90.1996 83.3 90.3996 84.1 90.3996 84.8C90.3996 85.8 89.7996 86.8 88.4996 87.8L82.1996 92C81.2996 92.6 80.3996 92.9 79.5996 92.9C78.5996 92.9 77.5996 92.4 76.5996 91.5C75.1996 90 73.9996 88.4 72.9996 86.8C71.9996 85.1 70.9996 83.2 69.8996 80.9C62.0996 90.1 52.2996 94.7 40.4996 94.7C32.0996 94.7 25.3996 92.3 20.4996 87.5C15.5996 82.7 13.0996 76.3 13.0996 68.3C13.0996 59.8 16.0996 52.9 22.1996 47.7C28.2996 42.5 36.3996 39.9 46.6996 39.9C50.0996 39.9 53.5996 40.2 57.2996 40.7C60.9996 41.2 64.7996 42 68.7996 42.9V35.6C68.7996 28 67.1996 22.7 64.0996 19.6C60.8996 16.5 55.4996 15 47.7996 15C44.2996 15 40.6996 15.4 36.9996 16.3C33.2996 17.2 29.6996 18.3 26.1996 19.7C24.5996 20.4 23.3996 20.8 22.6996 21C21.9996 21.2 21.4996 21.3 21.0996 21.3C19.6996 21.3 18.9996 20.3 18.9996 18.2V13.3C18.9996 11.7 19.1996 10.5 19.6996 9.79998C20.1996 9.09998 21.0996 8.39998 22.4996 7.69998C25.9996 5.89998 30.1996 4.39998 35.0996 3.19998C39.9996 1.89998 45.1996 1.29998 50.6996 1.29998C62.5996 1.29998 71.2996 3.99997 76.8996 9.39997C82.3996 14.8 85.1996 23 85.1996 34V66.4H85.3996ZM44.7996 81.6C48.0996 81.6 51.4996 81 55.0996 79.8C58.6996 78.6 61.8996 76.4 64.5996 73.4C66.1996 71.5 67.3996 69.4 67.9996 67C68.5996 64.6 68.9996 61.7 68.9996 58.3V54.1C66.0996 53.4 62.9996 52.8 59.7996 52.4C56.5996 52 53.4996 51.8 50.3996 51.8C43.6996 51.8 38.7996 53.1 35.4996 55.8C32.1996 58.5 30.5996 62.3 30.5996 67.3C30.5996 72 31.7996 75.5 34.2996 77.9C36.6996 80.4 40.1996 81.6 44.7996 81.6ZM125.1 92.4C123.3 92.4 122.1 92.1 121.3 91.4C120.5 90.8 119.8 89.4 119.2 87.5L95.6996 10.2C95.0996 8.19998 94.7996 6.89998 94.7996 6.19998C94.7996 4.59998 95.5996 3.69998 97.1996 3.69998H107C108.9 3.69998 110.2 3.99998 110.9 4.69998C111.7 5.29998 112.3 6.69998 112.9 8.59998L129.7 74.8L145.3 8.59998C145.8 6.59998 146.4 5.29998 147.2 4.69998C148 4.09998 149.4 3.69998 151.2 3.69998H159.2C161.1 3.69998 162.4 3.99998 163.2 4.69998C164 5.29998 164.7 6.69998 165.1 8.59998L180.9 75.6L198.2 8.59998C198.8 6.59998 199.5 5.29998 200.2 4.69998C201 4.09998 202.3 3.69998 204.1 3.69998H213.4C215 3.69998 215.9 4.49998 215.9 6.19998C215.9 6.69998 215.8 7.19998 215.7 7.79998C215.6 8.39998 215.4 9.19998 215 10.3L190.9 87.6C190.3 89.6 189.6 90.9 188.8 91.5C188 92.1 186.7 92.5 185 92.5H176.4C174.5 92.5 173.2 92.2 172.4 91.5C171.6 90.8 170.9 89.5 170.5 87.5L155 23L139.6 87.4C139.1 89.4 138.5 90.7 137.7 91.4C136.9 92.1 135.5 92.4 133.7 92.4H125.1ZM253.6 95.1C248.4 95.1 243.2 94.5 238.2 93.3C233.2 92.1 229.3 90.8 226.7 89.3C225.1 88.4 224 87.4 223.6 86.5C223.2 85.6 223 84.6 223 83.7V78.6C223 76.5 223.8 75.5 225.3 75.5C225.9 75.5 226.5 75.6 227.1 75.8C227.7 76 228.6 76.4 229.6 76.8C233 78.3 236.7 79.5 240.6 80.3C244.6 81.1 248.5 81.5 252.5 81.5C258.8 81.5 263.7 80.4 267.1 78.2C270.5 76 272.3 72.8 272.3 68.7C272.3 65.9 271.4 63.6 269.6 61.7C267.8 59.8 264.4 58.1 259.5 56.5L245 52C237.7 49.7 232.3 46.3 229 41.8C225.7 37.4 224 32.5 224 27.3C224 23.1 224.9 19.4 226.7 16.2C228.5 13 230.9 10.2 233.9 7.99998C236.9 5.69998 240.3 3.99998 244.3 2.79998C248.3 1.59998 252.5 1.09998 256.9 1.09998C259.1 1.09998 261.4 1.19998 263.6 1.49998C265.9 1.79998 268 2.19998 270.1 2.59998C272.1 3.09998 274 3.59998 275.8 4.19998C277.6 4.79998 279 5.39998 280 5.99998C281.4 6.79998 282.4 7.59998 283 8.49998C283.6 9.29998 283.9 10.4 283.9 11.8V16.5C283.9 18.6 283.1 19.7 281.6 19.7C280.8 19.7 279.5 19.3 277.8 18.5C272.1 15.9 265.7 14.6 258.6 14.6C252.9 14.6 248.4 15.5 245.3 17.4C242.2 19.3 240.6 22.2 240.6 26.3C240.6 29.1 241.6 31.5 243.6 33.4C245.6 35.3 249.3 37.2 254.6 38.9L268.8 43.4C276 45.7 281.2 48.9 284.3 53C287.4 57.1 288.9 61.8 288.9 67C288.9 71.3 288 75.2 286.3 78.6C284.5 82 282.1 85 279 87.4C275.9 89.9 272.2 91.7 267.9 93C263.4 94.4 258.7 95.1 253.6 95.1Z" stroke="#E1E1E1" stroke-width="6" mask="url(#path-1-outside-1_1128_160)"/>
<path fill-rule="evenodd" clip-rule="evenodd" d="M272.5 143.7C239.6 168 191.8 180.9 150.7 180.9C93.1 180.9 41.2 159.6 1.99999 124.2C-1.10001 121.4 1.69999 117.6 5.39999 119.8C47.8 144.4 100.1 159.3 154.2 159.3C190.7 159.3 230.8 151.7 267.7 136.1C273.2 133.6 277.9 139.7 272.5 143.7Z" fill="#FF9900"/>
<path fill-rule="evenodd" clip-rule="evenodd" d="M286.2 128.1C282 122.7 258.4 125.5 247.7 126.8C244.5 127.2 244 124.4 246.9 122.3C265.7 109.1 296.6 112.9 300.2 117.3C303.8 121.8 299.2 152.7 281.6 167.5C278.9 169.8 276.3 168.6 277.5 165.6C281.5 155.7 290.4 133.4 286.2 128.1Z" fill="#FF9900"/>
</svg>
