<svg width="224" height="224" viewBox="0 0 224 224" fill="none" xmlns="http://www.w3.org/2000/svg">
<circle cx="112" cy="112" r="112" fill="url(#paint0_radial_1133_98)" fill-opacity="0.35"/>
<path d="M64 111.545C64 111.545 81.4545 77 112 77C142.545 77 160 111.545 160 111.545C160 111.545 142.545 146.091 112 146.091C81.4545 146.091 64 111.545 64 111.545Z" stroke="#DC143C" stroke-width="10" stroke-linecap="round" stroke-linejoin="round"/>
<path d="M112 124.5C119.23 124.5 125.091 118.7 125.091 111.545C125.091 104.391 119.23 98.5909 112 98.5909C104.77 98.5909 98.9092 104.391 98.9092 111.545C98.9092 118.7 104.77 124.5 112 124.5Z" stroke="#DC143C" stroke-width="10" stroke-linecap="round" stroke-linejoin="round"/>
<defs>
<radialGradient id="paint0_radial_1133_98" cx="0" cy="0" r="1" gradientUnits="userSpaceOnUse" gradientTransform="translate(112 -90.5) rotate(90) scale(314.5)">
<stop offset="0.116634" stop-color="#E1E1E1"/>
<stop offset="0.951257" stop-color="#E1E1E1" stop-opacity="0"/>
</radialGradient>
</defs>
</svg>
