<svg width="108" height="108" viewBox="0 0 108 108" fill="none" xmlns="http://www.w3.org/2000/svg">
<path d="M102 51.3334C102.018 58.3727 100.374 65.3168 97.1999 71.6C93.4368 79.1293 87.6519 85.4623 80.4929 89.8895C73.334 94.3167 65.0839 96.6634 56.6666 96.6667C49.6273 96.685 42.6832 95.0404 36.4 91.8667L6 102L16.1333 71.6C12.9596 65.3168 11.315 58.3727 11.3333 51.3334C11.3366 42.9161 13.6833 34.666 18.1105 27.5071C22.5377 20.3481 28.8707 14.5632 36.4 10.8001C42.6832 7.62645 49.6273 5.9818 56.6666 6.00015H59.3332C70.4498 6.61344 80.9494 11.3055 88.822 19.178C96.6945 27.0506 101.387 37.5502 102 48.6668V51.3334Z" stroke="#DC143C" stroke-width="12" stroke-linecap="round" stroke-linejoin="round"/>
</svg>
