<svg xmlns="http://www.w3.org/2000/svg" fill="none" viewBox="0 0 338 64">
  <circle cx="32" cy="32" r="32" fill="#733129"/>
  <circle cx="32" cy="32" r="25.6" fill="#A23527"/>
  <circle cx="32" cy="32" r="19.2" fill="#BB3524"/>
  <path fill="#0C0C0C" d="m32.32 15.36 3.52 16.32L32.32 48 28.8 31.68l3.52-16.32Z"/>
  <circle cx="35.84" cy="19.84" r="3.2" fill="#fff"/>
  <path fill="#EEE" d="M83.008 44V21.6h9.216c1.984 0 3.68.32 5.088.96 1.43.64 2.528 1.557 3.296 2.752.768 1.195 1.152 2.613 1.152 4.256 0 1.643-.384 3.061-1.152 4.256-.768 1.195-1.867 2.112-3.296 2.752-1.408.64-3.104.96-5.088.96h-6.912l1.856-1.952V44h-4.16Zm4.16-7.968-1.856-2.016h6.72c1.835 0 3.21-.384 4.128-1.152.939-.79 1.408-1.888 1.408-3.296 0-1.43-.47-2.528-1.408-3.296-.917-.768-2.293-1.152-4.128-1.152h-6.72l1.856-2.048v12.96ZM105.914 44V21.6h9.216c1.984 0 3.68.32 5.088.96 1.43.64 2.528 1.557 3.296 2.752.768 1.195 1.152 2.613 1.152 4.256 0 1.643-.384 3.061-1.152 4.256-.768 1.173-1.866 2.08-3.296 2.72-1.408.619-3.104.928-5.088.928h-6.912l1.856-1.888V44h-4.16Zm14.656 0-5.664-8.128h4.448L125.05 44h-4.48Zm-10.496-7.968-1.856-1.984h6.72c1.835 0 3.211-.395 4.128-1.184.939-.79 1.408-1.888 1.408-3.296 0-1.43-.469-2.528-1.408-3.296-.917-.768-2.293-1.152-4.128-1.152h-6.72l1.856-2.048v12.96Zm23.087-5.12h11.136v3.424h-11.136v-3.424Zm.32 9.6h12.64V44h-16.8V21.6h16.352v3.488h-12.192v15.424ZM150.758 44V21.6h9.792c2.432 0 4.565.47 6.4 1.408 1.835.939 3.264 2.24 4.288 3.904 1.024 1.664 1.536 3.627 1.536 5.888 0 2.24-.512 4.203-1.536 5.888-1.024 1.664-2.453 2.965-4.288 3.904-1.835.939-3.968 1.408-6.4 1.408h-9.792Zm4.16-3.52h5.44c1.685 0 3.136-.32 4.352-.96 1.237-.64 2.187-1.536 2.848-2.688.683-1.152 1.024-2.496 1.024-4.032 0-1.557-.341-2.901-1.024-4.032-.661-1.152-1.611-2.048-2.848-2.688-1.216-.64-2.667-.96-4.352-.96h-5.44v15.36ZM173.715 44l10.08-22.4h4.096L198.003 44h-4.352l-8.672-20.192h1.664L178.003 44h-4.288Zm4.64-5.184 1.12-3.264h12.096l1.12 3.264h-14.336ZM204.271 44V25.12h-7.424V21.6h19.008v3.52h-7.424V44h-4.16Zm24.889.32c-1.749 0-3.36-.288-4.832-.864-1.472-.576-2.752-1.376-3.84-2.4a11.107 11.107 0 0 1-2.528-3.648c-.597-1.408-.896-2.944-.896-4.608 0-1.664.299-3.19.896-4.576a10.682 10.682 0 0 1 2.528-3.648 11.552 11.552 0 0 1 3.84-2.432c1.472-.576 3.072-.864 4.8-.864 1.75 0 3.35.288 4.8.864a11.552 11.552 0 0 1 3.84 2.432 10.668 10.668 0 0 1 2.528 3.648c.598 1.387.896 2.912.896 4.576 0 1.664-.298 3.2-.896 4.608a10.668 10.668 0 0 1-2.528 3.648c-1.088 1.024-2.368 1.824-3.84 2.4-1.45.576-3.04.864-4.768.864Zm-.032-3.648c1.131 0 2.176-.192 3.136-.576a7.343 7.343 0 0 0 2.496-1.632 7.78 7.78 0 0 0 1.632-2.496c.406-.96.608-2.016.608-3.168 0-1.152-.202-2.197-.608-3.136a7.343 7.343 0 0 0-1.632-2.496 7.121 7.121 0 0 0-2.496-1.664c-.96-.384-2.005-.576-3.136-.576-1.13 0-2.176.192-3.136.576a7.545 7.545 0 0 0-2.496 1.664 7.764 7.764 0 0 0-1.664 2.496c-.384.939-.576 1.984-.576 3.136 0 1.13.192 2.176.576 3.136.406.96.96 1.803 1.664 2.528a7.343 7.343 0 0 0 2.496 1.632c.96.384 2.006.576 3.136.576ZM245.602 44V21.6h9.216c1.984 0 3.68.32 5.088.96 1.429.64 2.528 1.557 3.296 2.752.768 1.195 1.152 2.613 1.152 4.256 0 1.643-.384 3.061-1.152 4.256-.768 1.173-1.867 2.08-3.296 2.72-1.408.619-3.104.928-5.088.928h-6.912l1.856-1.888V44h-4.16Zm14.656 0-5.664-8.128h4.448L264.738 44h-4.48Zm-10.496-7.968-1.856-1.984h6.72c1.834 0 3.21-.395 4.128-1.184.938-.79 1.408-1.888 1.408-3.296 0-1.43-.47-2.528-1.408-3.296-.918-.768-2.294-1.152-4.128-1.152h-6.72l1.856-2.048v12.96ZM276.928 44V27.2h1.224v15.696h9.672V44h-10.896Zm11.231 0 7.728-16.8h1.224l7.728 16.8h-1.32l-7.296-16.032h.528L289.479 44h-1.32Zm2.832-4.728.408-1.032h10.056l.408 1.032h-10.872ZM307.889 44V27.2h7.008c1.808 0 3.224.368 4.248 1.104 1.024.736 1.536 1.8 1.536 3.192 0 .912-.216 1.68-.648 2.304-.432.624-1.032 1.096-1.8 1.416-.752.304-1.6.456-2.544.456l.432-.48c1.152 0 2.136.168 2.952.504.816.336 1.432.824 1.848 1.464.432.64.648 1.44.648 2.4 0 1.408-.512 2.504-1.536 3.288-1.024.768-2.576 1.152-4.656 1.152h-7.488Zm1.224-1.056h6.264c1.616 0 2.848-.272 3.696-.816.848-.56 1.272-1.448 1.272-2.664 0-1.2-.424-2.072-1.272-2.616-.848-.56-2.08-.84-3.696-.84h-6.408v-1.056h5.88c1.456 0 2.584-.28 3.384-.84.8-.56 1.2-1.4 1.2-2.52 0-1.104-.4-1.936-1.2-2.496-.8-.56-1.928-.84-3.384-.84h-5.736v14.688Zm21.239 1.176c-1.248 0-2.432-.208-3.552-.624-1.104-.432-1.96-.984-2.568-1.656l.552-.912c.576.592 1.36 1.096 2.352 1.512 1.008.4 2.072.6 3.192.6s2.032-.144 2.736-.432c.72-.304 1.248-.704 1.584-1.2a2.795 2.795 0 0 0 .528-1.656c0-.72-.192-1.296-.576-1.728-.384-.432-.888-.776-1.512-1.032a13.873 13.873 0 0 0-2.04-.648c-.736-.176-1.48-.36-2.232-.552a10.85 10.85 0 0 1-2.064-.792 4.112 4.112 0 0 1-1.512-1.296c-.368-.56-.552-1.28-.552-2.16 0-.8.208-1.536.624-2.208.416-.672 1.064-1.216 1.944-1.632.88-.416 2.008-.624 3.384-.624.928 0 1.84.136 2.736.408.912.272 1.688.64 2.328 1.104l-.456.984a7.586 7.586 0 0 0-2.28-1.056c-.8-.24-1.576-.36-2.328-.36-1.072 0-1.96.152-2.664.456-.704.304-1.224.712-1.56 1.224a2.926 2.926 0 0 0-.504 1.68c0 .72.184 1.296.552 1.728.384.432.888.776 1.512 1.032a13.61 13.61 0 0 0 2.064.648c.752.176 1.496.368 2.232.576a9.97 9.97 0 0 1 2.04.768c.624.32 1.128.752 1.512 1.296.384.544.576 1.248.576 2.112a4.08 4.08 0 0 1-.648 2.208c-.432.672-1.096 1.216-1.992 1.632-.88.4-2.016.6-3.408.6Z"/>
</svg>