<svg width="266" height="101" viewBox="0 0 266 101" fill="none" xmlns="http://www.w3.org/2000/svg">
<path d="M175.647 2.89689L175.655 2.89214C176.163 2.60141 176.737 2.44717 177.323 2.44435L175.647 2.89689ZM175.647 2.89689L175.638 2.90171M175.647 2.89689L175.638 2.90171M175.638 2.90171C175.13 3.19911 174.708 3.6238 174.414 4.13396C174.12 4.64411 173.964 5.22209 173.961 5.81098V5.82066M175.638 2.90171L173.961 5.82066M173.961 5.82066V39.0943M173.961 5.82066V39.0943M21.2949 83.9172L21.2831 83.924L7.72061 91.7136C6.67423 92.3332 5.37924 92.3323 4.33437 91.7195C3.25184 91.1039 2.64673 89.9674 2.64616 88.797L2.64616 88.798L4.64616 88.7953H2.64616L2.59963 53.3445C2.59963 53.3439 2.59963 53.3433 2.59962 53.3427L2.59962 53.3413L4.59962 53.3387L21.2949 83.9172ZM21.2949 83.9172L21.3066 83.9102M21.2949 83.9172L21.3066 83.9102M21.3066 83.9102C22.7032 83.0826 23.7086 81.5757 23.7086 79.8054V63.2466C23.7086 62.9681 23.8507 62.7289 24.0793 62.5981L24.0882 62.5929M21.3066 83.9102L24.0882 62.5929M24.0882 62.5929L29.8677 59.2448L29.8705 59.2432M24.0882 62.5929L29.8705 59.2432M29.8705 59.2432C29.9799 59.1796 30.1042 59.1464 30.2307 59.147L30.2417 59.1471M29.8705 59.2432L30.2417 59.1471M30.2417 59.1471L30.2527 59.147M30.2417 59.1471L30.2527 59.147M30.2527 59.147C30.3784 59.1463 30.502 59.1793 30.6106 59.2425L30.6147 59.2449M30.2527 59.147L30.6147 59.2449M30.6147 59.2449L36.3917 62.5911L36.3993 62.5955M30.6147 59.2449L36.3993 62.5955M36.3993 62.5955C36.6269 62.726 36.7698 62.9666 36.7698 63.2447V79.8029C36.7698 81.5815 37.7945 83.0896 39.1701 83.9066L39.1826 83.9141M36.3993 62.5955L39.1826 83.9141M39.1826 83.9141L39.1953 83.9214M39.1826 83.9141L39.1953 83.9214M39.1953 83.9214L52.7604 91.7125L39.1953 83.9214ZM30.4172 35.4224L30.4577 35.4241C31.076 35.4491 31.8476 35.5634 32.6201 36.0144C32.6224 36.0158 32.6247 36.0172 32.6271 36.0185L55.4941 49.2156C55.4955 49.2165 55.497 49.2173 55.4984 49.2181C56.2246 49.6337 56.8275 50.2346 57.2456 50.9594C57.6637 51.6842 57.882 52.5069 57.8782 53.3435C57.8782 53.3452 57.8782 53.3469 57.8782 53.3486L57.8323 88.7928L30.4172 35.4224ZM30.4172 35.4224H30.3766M30.4172 35.4224H30.3766M30.3766 35.4224H30.1025H29.6287M30.3766 35.4224H29.6287M29.6287 35.4224L29.5503 35.4618M29.6287 35.4224L29.5503 35.4618M29.5503 35.4618C29.0322 35.5244 28.449 35.6725 27.8613 36.013C27.8604 36.0136 27.8594 36.0141 27.8585 36.0147L4.97906 49.2196C4.97804 49.2202 4.97701 49.2208 4.97599 49.2214L29.5503 35.4618ZM237.115 35.9375C237.475 36.0434 237.823 36.1922 238.151 36.382L238.153 36.3832L260.899 49.5911C261.622 50.0085 262.221 50.6087 262.638 51.3313C263.055 52.0539 263.275 52.8736 263.275 53.7078V60.0827C263.275 61.7854 262.364 63.3462 260.904 64.1956C260.904 64.1957 260.903 64.1959 260.903 64.196L247.19 72.1751L247.188 72.1762C246.135 72.7873 244.852 72.7806 243.808 72.1791C243.294 71.883 242.867 71.4565 242.571 70.9425C242.274 70.4292 242.119 69.8468 242.119 69.2543C242.119 69.2525 242.119 69.2507 242.119 69.249M237.115 35.9375L244.119 69.2543L242.119 69.249M237.115 35.9375L237.022 35.7478L235.777 35.7444C234.941 35.7421 234.119 35.9611 233.395 36.3794C233.395 36.3796 233.394 36.3798 233.394 36.3801L210.507 49.5895L210.506 49.5904C209.036 50.4407 208.13 52.0027 208.13 53.7059V80.1255C208.13 81.8869 209.12 83.4262 210.562 84.2476L233.265 97.1881C234.667 97.9875 236.435 98.077 237.934 97.2432L237.935 97.2429L251.693 89.5842L237.115 35.9375ZM242.119 69.249L242.119 63.101M242.119 69.249L242.119 63.101M242.119 63.101L242.432 63.2815L242.435 63.2831L242.119 63.101ZM242.119 63.101L235.585 59.3323M242.119 63.101L236.273 57.4205M242.119 63.101V62.741C242.12 62.8503 242.149 62.9574 242.204 63.0519L242.119 63.101ZM235.585 59.3323L235.896 59.1529C235.701 59.265 235.463 59.2618 235.277 59.1548M235.585 59.3323L235.277 59.1548M235.585 59.3323L229.008 63.127M235.277 59.1548L235.586 58.6165L235.587 58.6156L236.273 57.4205M235.277 59.1548L235.274 59.1531L235.585 58.6141L235.585 58.6132L236.273 57.4205M236.273 57.4205L251.695 89.5828C252.695 89.0272 253.452 87.9459 253.456 86.6483C253.459 85.4336 252.818 84.3215 251.762 83.7163C251.762 83.7161 251.762 83.716 251.762 83.7158L229.008 70.662M229.008 63.127V62.741C229.008 62.9129 228.954 63.0424 228.905 63.1205C228.858 63.195 228.802 63.2458 228.741 63.2811M229.008 63.127L228.741 63.2811M229.008 63.127V70.662M228.741 63.2811L228.74 63.2813L228.739 63.2819C228.74 63.2816 228.74 63.2814 228.741 63.2811ZM229.008 70.662L228.736 70.5062C228.841 70.5668 228.898 70.6359 228.931 70.6907C228.964 70.7461 229.008 70.848 229.008 71.0023V70.662ZM173.961 39.0943L169.806 36.7017C169.805 36.7011 169.804 36.7004 169.803 36.6997M173.961 39.0943L169.803 36.6997M169.803 36.6997C169.081 36.2829 168.262 36.0634 167.429 36.0634C166.595 36.0634 165.775 36.2832 165.053 36.7006L169.803 36.6997ZM139.789 80.4898V54.0731C139.789 52.4087 140.659 50.7792 142.166 49.9101C142.166 49.91 142.166 49.9099 142.166 49.9098L165.051 36.7017L139.789 80.4898ZM139.789 80.4898C139.787 81.3252 140.007 82.1461 140.424 82.8696M139.789 80.4898L140.424 82.8696M165.049 97.8174L142.167 84.6106L165.049 97.8174ZM165.049 97.8174C165.049 97.8176 165.05 97.8179 165.05 97.8182C165.773 98.2373 166.593 98.458 167.429 98.458C168.264 98.458 169.085 98.2373 169.807 97.8182C169.808 97.8179 169.808 97.8176 169.809 97.8174L192.691 84.6106M165.049 97.8174L192.691 84.6106M192.691 84.6106C192.691 84.6103 192.692 84.61 192.692 84.6097L192.691 84.6106ZM195.069 80.4898V80.4927H193.069L195.069 80.4898ZM195.069 80.4898V14.627M195.069 80.4898V14.627M140.424 82.8696C140.841 83.5926 141.442 84.1928 142.165 84.6097L140.424 82.8696ZM195.069 14.627C195.069 12.9074 194.136 11.2956 192.623 10.4505M195.069 14.627L192.623 10.4505M192.623 10.4505C192.623 10.4503 192.623 10.4501 192.622 10.4499L192.623 10.4505ZM167.337 57.4683V57.4671M167.359 59.6709L173.914 63.466V71.0085L167.36 74.8033L160.805 71.0085V63.4648L167.359 59.6709ZM160.171 70.6412C160.172 70.6419 160.173 70.6426 160.174 70.6433L160.171 70.6412ZM174.555 70.6377L174.545 70.6433C174.548 70.6414 174.551 70.6395 174.555 70.6377Z" fill="#404137" stroke="#E1E1E1" stroke-width="4"/>
<path d="M98.8472 35.606L98.8473 35.6054C99.6846 35.6018 100.508 35.821 101.233 36.2404C101.234 36.241 101.235 36.2417 101.236 36.2424L124.118 49.4031C125.629 50.2725 126.498 51.9043 126.498 53.5675L126.498 79.9843M98.8472 35.606L126.498 79.9843M98.8472 35.606C98.0174 35.6071 97.2023 35.8257 96.4832 36.2401C96.483 36.2402 96.4828 36.2404 96.4825 36.2405L73.5963 49.4037L73.5943 49.4049C72.0858 50.2749 71.2178 51.9063 71.2178 53.5682V79.9855M98.8472 35.606L124.119 84.1051M126.498 79.9843L126.498 79.9871M126.498 79.9843C126.498 79.9852 126.498 79.9862 126.498 79.9871M126.498 79.9871C126.498 80.8215 126.279 81.6414 125.862 82.3641C125.444 83.0876 124.843 83.6882 124.119 84.1051M126.498 79.9871L124.119 84.1051M124.119 84.1051L101.237 97.3118C101.237 97.3123 101.236 97.3127 101.235 97.3131C100.513 97.7319 99.6925 97.9525 98.8574 97.9525C98.0223 97.9525 97.2021 97.7319 96.4797 97.3131C96.4789 97.3127 96.4782 97.3123 96.4774 97.3118L73.5972 84.1062C73.5968 84.1059 73.5964 84.1057 73.5959 84.1054C72.8715 83.6889 72.27 83.0884 71.8524 82.3646C71.435 81.6413 71.2161 80.8206 71.2178 79.9855M71.2178 79.9855C71.2178 79.9844 71.2178 79.9834 71.2178 79.9824L73.2171 79.9878H71.2178V79.9855ZM241.367 62.068L236.977 59.5067C236.974 59.5049 236.971 59.5033 236.969 59.5016C236.709 59.3492 236.428 59.2488 236.128 59.206C235.999 59.1876 235.892 59.1836 235.831 59.1823C235.8 59.1817 235.773 59.1817 235.758 59.1817C235.739 59.1817 235.738 59.1817 235.737 59.1817L235.727 59.1817L235.726 59.1824C235.696 59.1823 235.533 59.1804 235.352 59.2018C235.158 59.2248 234.843 59.2838 234.504 59.4661L234.474 59.4823L234.445 59.4995L230.053 62.0619C229.676 62.277 229.36 62.5856 229.136 62.9584C228.907 63.3394 228.782 63.7738 228.774 64.2179L228.774 64.2362V64.2544V69.3002C228.774 70.2783 229.332 71.0756 230.047 71.4899L230.055 71.4946L234.44 74.0067C234.822 74.2335 235.259 74.3534 235.704 74.3534C236.15 74.3534 236.587 74.2334 236.969 74.0065L241.353 71.4946L241.355 71.4936C242.075 71.0804 242.635 70.2781 242.635 69.3002V64.2544C242.635 63.2696 242.07 62.478 241.367 62.0681L241.367 62.068Z" fill="#83CD29" stroke="#E1E1E1" stroke-width="4"/>
</svg>
