<svg width="108" height="112" viewBox="0 0 108 112" fill="none" xmlns="http://www.w3.org/2000/svg">
<path d="M65.9518 15.9921H75.9438C78.5939 15.9921 81.1354 17.0448 83.0092 18.9186C84.8831 20.7925 85.9358 23.334 85.9358 25.984V95.9279C85.9358 98.5779 84.8831 101.119 83.0092 102.993C81.1354 104.867 78.5939 105.92 75.9438 105.92H15.992C13.3419 105.92 10.8004 104.867 8.92658 102.993C7.05272 101.119 6 98.5779 6 95.9279V25.984C6 23.334 7.05272 20.7925 8.92658 18.9186C10.8004 17.0448 13.3419 15.9921 15.992 15.9921H25.9839" stroke="#DC143C" stroke-width="12" stroke-linecap="round" stroke-linejoin="round"/>
<path d="M60.9558 6H30.9799C28.2207 6 25.9839 8.23678 25.9839 10.996V20.988C25.9839 23.7472 28.2207 25.9839 30.9799 25.9839H60.9558C63.715 25.9839 65.9518 23.7472 65.9518 20.988V10.996C65.9518 8.23678 63.715 6 60.9558 6Z" stroke="#DC143C" stroke-width="12" stroke-linecap="round" stroke-linejoin="round"/>
<path d="M102 27.333L57.0363 72.2969L36.5981 51.8588" stroke="#DC143C" stroke-width="12" stroke-linecap="round" stroke-linejoin="round"/>
</svg>
