<svg width="368" height="184" viewBox="0 0 368 184" fill="none" xmlns="http://www.w3.org/2000/svg">
<path d="M79.8567 102.561C85.7431 102.561 90.5151 97.7892 90.5151 91.9027C90.5151 86.0162 85.7431 81.2443 79.8567 81.2443C73.9702 81.2443 69.1982 86.0162 69.1982 91.9027C69.1982 97.7892 73.9702 102.561 79.8567 102.561Z" fill="#00D8FF"/>
<path fill-rule="evenodd" clip-rule="evenodd" d="M79.8559 70.2317C94.1663 70.2317 107.46 72.2851 117.484 75.7359C129.561 79.8937 136.986 86.1958 136.986 91.9025C136.986 97.8492 129.117 104.544 116.148 108.841C106.343 112.09 93.4401 113.786 79.8559 113.786C65.9284 113.786 52.7398 112.194 42.8243 108.806C30.2795 104.518 22.7236 97.736 22.7236 91.9025C22.7236 86.2421 29.8134 79.9886 41.7206 75.8372C51.7816 72.3295 65.4038 70.2317 79.854 70.2317H79.8559Z" stroke="#00D8FF" stroke-width="5.09901"/>
<path fill-rule="evenodd" clip-rule="evenodd" d="M60.9899 81.1296C68.1391 68.7331 76.5589 58.2427 84.5558 51.2834C94.1908 42.8985 103.36 39.6148 108.303 42.4653C113.455 45.4361 115.323 55.5982 112.567 68.9793C110.484 79.0962 105.506 91.1201 98.7194 102.888C91.7613 114.953 83.7941 125.583 75.9062 132.477C65.9249 141.203 56.275 144.36 51.2217 141.446C46.3181 138.62 44.443 129.353 46.7953 116.964C48.7829 106.496 53.7708 93.6473 60.9876 81.1294L60.9899 81.1296Z" stroke="#00D8FF" stroke-width="5.09901"/>
<path fill-rule="evenodd" clip-rule="evenodd" d="M61.0082 102.919C53.8387 90.5368 48.9575 78.0007 46.92 67.597C44.4674 55.0619 46.2015 45.4779 51.1403 42.6191C56.2869 39.6395 66.0241 43.0958 76.2402 52.167C83.9643 59.0251 91.8958 69.3415 98.7019 81.0981C105.68 93.1515 110.91 105.363 112.944 115.64C115.519 128.645 113.435 138.582 108.386 141.505C103.488 144.341 94.5235 141.338 84.965 133.113C76.8888 126.163 68.2483 115.425 61.0082 102.919V102.919Z" stroke="#00D8FF" stroke-width="5.09901"/>
<path fill-rule="evenodd" clip-rule="evenodd" d="M198.168 119.134L185.104 99.3969C191.707 98.8143 197.656 94.0303 197.656 85.2903C197.656 76.3969 191.345 70.7052 182.491 70.7052H163.049V119.097H169.072V99.8692H178.723L191.057 119.097L198.168 119.134ZM181.771 94.6099H169.075V76.1087H181.771C187.505 76.1087 191.422 79.8807 191.422 85.324C191.422 90.7673 187.502 94.616 181.771 94.616V94.6099ZM220.589 120.002C226.323 120.002 231.037 118.116 234.521 114.635L231.908 111.078C229.148 113.908 225.087 115.503 221.098 115.503C213.554 115.503 208.908 109.989 208.472 103.39H236.839V102.01C236.839 91.4911 230.598 83.2172 220.003 83.2172C209.99 83.2172 202.738 91.4175 202.738 101.574C202.738 112.531 210.211 119.974 220.586 119.974L220.589 120.002ZM231.475 99.3939H208.475C208.767 94.0272 212.462 87.7099 219.939 87.7099C227.921 87.7099 231.402 94.1683 231.475 99.3939ZM272.98 119.131V95.0423C272.98 86.5537 266.816 83.2141 259.413 83.2141C253.678 83.2141 249.182 85.1001 245.41 89.0193L247.949 92.7913C251.068 89.4548 254.482 87.9307 258.689 87.9307C263.767 87.9307 267.542 90.614 267.542 95.3305V101.642C264.712 98.3757 260.722 96.8516 255.932 96.8516C249.983 96.8516 243.665 100.553 243.665 108.388C243.665 116.006 249.977 119.999 255.932 119.999C260.649 119.999 264.641 118.331 267.542 115.138V119.125L272.98 119.131ZM257.892 116.083C252.813 116.083 249.256 112.893 249.256 108.465C249.256 103.966 252.813 100.774 257.892 100.774C261.737 100.774 265.436 102.224 267.542 105.129V111.731C265.439 114.632 261.737 116.083 257.892 116.083ZM299.292 120.002C305.676 120.002 309.448 117.389 312.135 113.908L308.507 110.572C306.185 113.691 303.211 115.141 299.614 115.141C292.14 115.141 287.5 109.336 287.5 101.574C287.5 93.8125 292.143 88.0809 299.614 88.0809C303.241 88.0809 306.216 89.4609 308.507 92.6503L312.135 89.3137C309.451 85.83 305.676 83.2203 299.292 83.2203C288.843 83.2203 281.805 91.2028 281.805 101.577C281.805 112.025 288.843 119.977 299.292 119.977V120.002ZM328.609 120.002C331.798 120.002 333.761 119.057 335.141 117.754L333.546 113.691C332.819 114.488 331.4 115.141 329.845 115.141C327.453 115.141 326.288 113.255 326.288 110.642V88.8752H333.402V84.0881H326.288V74.5109H320.844V84.0881H315.039V88.8783H320.844V111.808C320.844 117.033 323.457 120.008 328.609 120.008V120.002Z" fill="#00D8FF"/>
</svg>
